<svg xmlns="http://www.w3.org/2000/svg" width="199" height="155" viewBox="0 0 199 155"><defs><clipPath id="topHalf"><rect x="0" y="0" width="120" height="60"></rect></clipPath></defs><g transform="translate(27.5 12) scale(1.2)" clip-path="url(#topHalf)" stroke="#2F5D8A" fill="none"><circle cx="60" cy="60" r="28" stroke-width="6.5"></circle><circle cx="60" cy="60" r="8.5" fill="#2F5D8A" stroke="none"></circle><path d="M60 49 L60 35.5 M67.8 52.2 L77.3 42.7 M71 60 L84.5 60 M67.8 67.8 L77.3 77.3 M60 71 L60 84.5 M52.2 67.8 L42.7 77.3 M49 60 L35.5 60 M52.2 52.2 L42.7 42.7" stroke-width="5" stroke-linecap="round"></path><path d="M60 28.5 L60 17 M82.3 37.7 L90.4 29.6 M91.5 60 L103 60 M82.3 82.3 L90.4 90.4 M60 91.5 L60 103 M37.7 82.3 L29.6 90.4 M28.5 60 L17 60 M37.7 37.7 L29.6 29.6" stroke-width="7.5" stroke-linecap="round"></path></g><path d="M14.32 116.30L14.32 116.25Q14.40 115.97 14.47 115.56Q14.55 115.15 14.60 114.55Q14.65 113.94 14.68 113.10Q14.70 112.27 14.70 111.15L14.70 111.15L14.70 102.56Q14.70 101.44 14.68 100.61Q14.65 99.77 14.60 99.16Q14.55 98.54 14.47 98.13Q14.40 97.73 14.32 97.45L14.32 97.45L14.32 97.40L17.49 97.40L17.49 97.45Q17.41 97.73 17.33 98.13Q17.26 98.54 17.22 99.16Q17.17 99.77 17.14 100.61Q17.10 101.44 17.10 102.56L17.10 102.56L17.10 105.50L24.80 99.22Q26.09 98.16 26.09 97.40L26.09 97.40L29.80 97.40L29.80 97.45Q29.02 97.63 28.22 98.15Q27.43 98.67 26.53 99.43L26.53 99.43L19.73 105.12L27.91 114.11Q28.43 114.64 28.79 114.99Q29.15 115.34 29.43 115.57Q29.71 115.80 29.94 115.95Q30.17 116.10 30.42 116.25L30.42 116.25L30.42 116.30L26.56 116.30Q26.50 116.18 26.38 116.00Q26.25 115.81 26.09 115.62Q25.92 115.42 25.73 115.21Q25.54 115.00 25.37 114.81L25.37 114.81L17.10 105.74L17.10 111.15Q17.10 112.27 17.14 113.10Q17.17 113.94 17.22 114.55Q17.26 115.15 17.33 115.56Q17.41 115.97 17.49 116.25L17.49 116.25L17.49 116.30L14.32 116.30Z M50.89 99.51L45.40 107.23L45.40 111.15Q45.40 112.27 45.43 113.10Q45.46 113.94 45.51 114.55Q45.56 115.15 45.63 115.56Q45.71 115.97 45.78 116.25L45.78 116.25L45.78 116.30L42.62 116.30L42.62 116.25Q42.70 115.97 42.77 115.56Q42.84 115.15 42.89 114.55Q42.94 113.94 42.97 113.10Q43.00 112.27 43.00 111.15L43.00 111.15L43.00 107.49L37.11 99.48Q36.81 99.07 36.51 98.73Q36.21 98.38 35.95 98.13Q35.69 97.87 35.48 97.70Q35.26 97.53 35.15 97.45L35.15 97.45L35.15 97.40L39.14 97.40Q39.14 97.70 39.40 98.39Q39.65 99.08 40.33 100.02L40.33 100.02L44.65 105.94L48.88 99.76Q49.11 99.43 49.33 99.08Q49.56 98.74 49.74 98.42Q49.92 98.11 50.04 97.84Q50.15 97.58 50.15 97.40L50.15 97.40L52.72 97.40L52.72 97.45Q52.43 97.70 51.94 98.19Q51.45 98.69 50.89 99.51L50.89 99.51Z M60.80 111.15L60.80 102.56Q60.80 101.44 60.77 100.61Q60.74 99.77 60.69 99.16Q60.64 98.54 60.56 98.13Q60.49 97.73 60.41 97.45L60.41 97.45L60.41 97.40Q60.68 97.41 60.97 97.41L60.97 97.41Q61.22 97.42 61.53 97.42Q61.84 97.42 62.17 97.42L62.17 97.42Q62.64 97.42 63.45 97.33Q64.26 97.24 65.54 97.24L65.54 97.24Q66.73 97.24 67.73 97.55Q68.73 97.86 69.46 98.44Q70.19 99.02 70.61 99.87Q71.03 100.72 71.03 101.80L71.03 101.80Q71.03 102.71 70.78 103.43Q70.52 104.15 70.07 104.68Q69.61 105.21 68.98 105.58Q68.34 105.94 67.57 106.15L67.57 106.15Q68.69 106.32 69.61 106.72Q70.54 107.13 71.20 107.73Q71.87 108.34 72.23 109.15Q72.59 109.96 72.59 110.95L72.59 110.95Q72.59 113.73 70.76 115.12Q68.93 116.51 65.28 116.51L65.28 116.51Q64.88 116.51 64.35 116.48Q63.83 116.45 63.28 116.41Q62.73 116.37 62.21 116.33Q61.68 116.30 61.28 116.30L61.28 116.30L60.41 116.30L60.41 116.25Q60.49 115.97 60.56 115.56Q60.64 115.15 60.69 114.55Q60.74 113.94 60.77 113.10Q60.80 112.27 60.80 111.15L60.80 111.15ZM65.63 106.95L65.63 106.95Q64.74 106.95 64.13 107.02Q63.52 107.09 63.19 107.15L63.19 107.15L63.19 111.15Q63.19 112.69 63.25 113.69Q63.30 114.69 63.39 115.33L63.39 115.33Q63.89 115.39 64.39 115.44Q64.90 115.50 65.20 115.50L65.20 115.50Q67.66 115.50 68.80 114.40Q69.94 113.30 69.94 111.01L69.94 111.01Q69.94 110.12 69.67 109.37Q69.40 108.63 68.87 108.09Q68.34 107.55 67.53 107.25Q66.71 106.95 65.63 106.95ZM63.19 98.40L63.19 105.97Q63.56 106.00 63.85 106.01Q64.14 106.02 64.47 106.02L64.47 106.02Q65.37 106.02 66.11 105.76Q66.85 105.50 67.37 104.99Q67.89 104.48 68.18 103.70Q68.47 102.93 68.47 101.90L68.47 101.90Q68.47 101.05 68.26 100.35Q68.05 99.65 67.63 99.16Q67.22 98.66 66.61 98.40Q66.00 98.13 65.22 98.13L65.22 98.13Q64.72 98.13 64.35 98.17Q63.97 98.21 63.71 98.27L63.71 98.27Q63.41 98.32 63.19 98.40L63.19 98.40Z M81.50 97.40L81.50 97.40Q83.15 97.40 84.78 97.38Q86.40 97.37 87.76 97.35Q89.12 97.33 90.08 97.29Q91.05 97.25 91.39 97.19L91.39 97.19L90.74 98.94Q90.31 98.82 89.73 98.73L89.73 98.73Q89.23 98.65 88.51 98.58Q87.79 98.50 86.85 98.50L86.85 98.50Q86.54 98.50 86.10 98.52Q85.65 98.54 85.24 98.57L85.24 98.57Q84.77 98.60 84.28 98.62L84.28 98.62L84.28 105.82Q85.64 105.81 86.73 105.74Q87.83 105.68 88.59 105.61L88.59 105.61Q89.49 105.53 90.18 105.42L90.18 105.42L89.77 107.34Q88.86 107.22 87.91 107.11L87.91 107.11Q87.09 107.02 86.13 106.95Q85.17 106.88 84.28 106.88L84.28 106.88L84.28 115.14Q85.84 115.14 87.14 115.01Q88.45 114.88 89.42 114.71L89.42 114.71Q90.56 114.52 91.49 114.27L91.49 114.27L91.11 116.41Q90.95 116.39 90.64 116.38Q90.32 116.37 89.93 116.35Q89.54 116.34 89.11 116.33Q88.69 116.33 88.30 116.32Q87.92 116.31 87.62 116.31Q87.33 116.30 87.20 116.30L87.20 116.30L81.50 116.30L81.50 116.25Q81.58 115.97 81.65 115.56Q81.72 115.15 81.78 114.55Q81.83 113.94 81.86 113.10Q81.88 112.27 81.88 111.15L81.88 111.15L81.88 102.56Q81.88 101.44 81.86 100.61Q81.83 99.77 81.78 99.16Q81.72 98.54 81.65 98.13Q81.58 97.73 81.50 97.45L81.50 97.45L81.50 97.40Z M103.46 108.18L103.46 111.15Q103.46 112.27 103.49 113.10Q103.52 113.94 103.57 114.55Q103.62 115.15 103.69 115.56Q103.76 115.97 103.84 116.25L103.84 116.25L103.84 116.30L100.68 116.30L100.68 116.25Q100.76 115.97 100.83 115.56Q100.90 115.15 100.95 114.55Q100.99 113.94 101.03 113.11Q101.06 112.28 101.06 111.15L101.06 111.15L101.06 102.56Q101.06 101.44 101.03 100.61Q100.99 99.77 100.95 99.16Q100.90 98.56 100.83 98.14Q100.76 97.73 100.68 97.45L100.68 97.45L100.68 97.40L101.23 97.45Q101.48 97.48 101.79 97.48Q102.10 97.49 102.43 97.49L102.43 97.49Q102.94 97.49 103.82 97.36Q104.70 97.24 106.06 97.24L106.06 97.24Q107.32 97.24 108.40 97.58Q109.47 97.92 110.26 98.58Q111.05 99.24 111.49 100.20Q111.94 101.15 111.94 102.37L111.94 102.37Q111.94 103.32 111.69 104.13Q111.45 104.94 111.01 105.60Q110.56 106.26 109.95 106.76Q109.33 107.27 108.56 107.61L108.56 107.61L113.19 114.11Q113.53 114.60 113.83 114.96Q114.12 115.31 114.39 115.57Q114.66 115.83 114.92 115.99Q115.17 116.16 115.43 116.25L115.43 116.25L115.43 116.30L111.62 116.30Q111.58 116.05 111.36 115.64Q111.14 115.22 110.85 114.81L110.85 114.81L106.19 108.23Q105.88 108.26 105.58 108.28Q105.28 108.30 104.96 108.30L104.96 108.30Q104.59 108.30 104.22 108.27Q103.84 108.25 103.46 108.18L103.46 108.18ZM103.46 98.42L103.46 107.15Q103.81 107.23 104.18 107.26Q104.55 107.30 104.90 107.30L104.90 107.30Q105.88 107.30 106.70 107.00Q107.52 106.70 108.09 106.10Q108.67 105.49 108.98 104.59Q109.30 103.68 109.30 102.47L109.30 102.47Q109.30 101.48 109.07 100.68Q108.85 99.87 108.41 99.31Q107.97 98.75 107.30 98.44Q106.62 98.13 105.73 98.13L105.73 98.13Q104.82 98.13 104.28 98.23Q103.74 98.32 103.46 98.42L103.46 98.42Z M122.46 97.40L123.31 97.40L136.89 111.85L136.89 102.56Q136.89 101.44 136.86 100.61Q136.83 99.77 136.78 99.16Q136.73 98.54 136.66 98.13Q136.58 97.73 136.50 97.45L136.50 97.45L136.50 97.40L138.85 97.40L138.85 97.45Q138.77 97.73 138.71 98.13Q138.64 98.54 138.59 99.16Q138.53 99.77 138.51 100.61Q138.48 101.44 138.48 102.56L138.48 102.56L138.48 116.56L138.02 116.56L124.44 102.13L124.44 111.15Q124.44 112.27 124.47 113.10Q124.49 113.94 124.55 114.55Q124.60 115.15 124.67 115.56Q124.73 115.97 124.81 116.25L124.81 116.25L124.81 116.30L122.46 116.30L122.46 116.25Q122.54 115.97 122.62 115.56Q122.69 115.15 122.74 114.55Q122.79 113.94 122.82 113.10Q122.85 112.27 122.85 111.15L122.85 111.15L122.85 102.56Q122.85 101.44 122.82 100.61Q122.79 99.77 122.74 99.16Q122.69 98.54 122.62 98.13Q122.54 97.73 122.46 97.45L122.46 97.45L122.46 97.40Z M157.08 97.08L157.08 97.08Q159.28 97.08 161.15 97.80Q163.01 98.52 164.37 99.82Q165.73 101.11 166.49 102.93Q167.26 104.75 167.26 106.95L167.26 106.95Q167.26 108.21 166.97 109.42Q166.68 110.63 166.12 111.71Q165.56 112.79 164.74 113.71Q163.92 114.63 162.87 115.29Q161.82 115.96 160.56 116.33Q159.29 116.71 157.83 116.71L157.83 116.71Q155.63 116.71 153.76 116.00Q151.90 115.30 150.54 114.01Q149.18 112.72 148.42 110.90Q147.65 109.09 147.65 106.88L147.65 106.88Q147.65 105.62 147.94 104.41Q148.23 103.20 148.79 102.10Q149.35 101.01 150.16 100.09Q150.97 99.18 152.02 98.50Q153.07 97.83 154.34 97.46Q155.61 97.08 157.08 97.08ZM157.83 115.52L157.83 115.52Q159.29 115.52 160.51 115.00Q161.72 114.47 162.60 113.47Q163.47 112.46 163.96 111.02Q164.45 109.58 164.45 107.75L164.45 107.75Q164.45 105.71 163.98 103.98Q163.51 102.25 162.59 100.98Q161.67 99.70 160.29 98.98Q158.91 98.27 157.08 98.27L157.08 98.27Q155.61 98.27 154.40 98.79Q153.19 99.31 152.31 100.30Q151.44 101.29 150.95 102.72Q150.46 104.16 150.46 105.99L150.46 105.99Q150.46 108.01 150.92 109.76Q151.38 111.50 152.31 112.78Q153.23 114.06 154.61 114.79Q156.00 115.52 157.83 115.52Z M184.14 97.94L184.05 100.40L183.76 100.40Q183.65 100.10 183.42 99.72Q183.19 99.33 182.81 99.00Q182.44 98.66 181.90 98.44Q181.37 98.21 180.64 98.21L180.64 98.21Q180.00 98.21 179.50 98.41Q179.00 98.61 178.66 98.96Q178.32 99.32 178.15 99.81Q177.98 100.30 177.98 100.89L177.98 100.89Q177.98 101.84 178.52 102.70Q179.05 103.57 179.85 104.41Q180.66 105.25 181.59 106.10Q182.53 106.94 183.33 107.85Q184.14 108.76 184.67 109.76Q185.21 110.75 185.21 111.90L185.21 111.90Q185.21 112.75 184.91 113.62Q184.61 114.48 183.99 115.17Q183.37 115.85 182.40 116.28Q181.42 116.71 180.08 116.71L180.08 116.71Q179.33 116.71 178.65 116.57Q177.97 116.43 177.39 116.23Q176.82 116.02 176.37 115.79Q175.91 115.55 175.62 115.35L175.62 115.35L175.92 112.44L176.25 112.44Q176.40 113.06 176.73 113.62Q177.06 114.18 177.54 114.61Q178.02 115.04 178.64 115.29Q179.26 115.55 180.00 115.55L180.00 115.55Q180.67 115.55 181.20 115.35Q181.74 115.14 182.12 114.78Q182.50 114.42 182.71 113.92Q182.91 113.41 182.91 112.82L182.91 112.82Q182.91 111.99 182.61 111.28Q182.31 110.58 181.81 109.95Q181.32 109.31 180.69 108.72Q180.06 108.13 179.41 107.53Q178.75 106.93 178.12 106.29Q177.49 105.66 177.00 104.94Q176.50 104.23 176.20 103.40Q175.90 102.58 175.90 101.59L175.90 101.59Q175.90 100.55 176.30 99.71Q176.70 98.87 177.37 98.28Q178.03 97.69 178.88 97.37Q179.72 97.05 180.62 97.05L180.62 97.05Q181.28 97.05 181.83 97.16Q182.38 97.26 182.83 97.41Q183.27 97.55 183.60 97.70Q183.93 97.84 184.14 97.94L184.14 97.94Z" fill="#262B33"></path><path d="M95.30 130.74L94.41 130.74L94.41 138.09L95.30 138.09L95.30 130.74Z M100.66 130.74L100.66 131.58L102.55 131.58L102.55 138.09L103.44 138.09L103.44 131.58L105.33 131.58L105.33 130.74L100.66 130.74Z" fill="#2F5D8A"></path><rect x="54.57" y="134.29" width="26" height="1" fill="#2F5D8A"></rect><rect x="118.43" y="134.29" width="26" height="1" fill="#2F5D8A"></rect></svg>